<?xml version="1.0" encoding="UTF-8"?>
<!DOCTYPE svg PUBLIC "-//W3C//DTD SVG 1.1//EN" "http://www.w3.org/Graphics/SVG/1.1/DTD/svg11.dtd">
<svg xmlns="http://www.w3.org/2000/svg" version="1.1" width="799px" height="659px" style="shape-rendering:geometricPrecision; text-rendering:geometricPrecision; image-rendering:optimizeQuality; fill-rule:evenodd; clip-rule:evenodd" xmlns:xlink="http://www.w3.org/1999/xlink">
<g><path style="opacity:1" fill="#fefefe" d="M -0.5,-0.5 C 134.833,-0.5 270.167,-0.5 405.5,-0.5C 309.63,9.67743 231.796,52.3441 172,127.5C 106.267,218.478 88.9337,318.145 120,426.5C 157.446,534.28 230.28,606.114 338.5,642C 434.428,668.287 524.761,655.62 609.5,604C 667.141,564.347 710.308,512.513 739,448.5C 761.04,400.436 772.54,349.936 773.5,297C 773.021,281.082 771.687,265.248 769.5,249.5C 735.462,260.759 705.629,278.759 680,303.5C 670.44,314.286 662.106,325.953 655,338.5C 643.559,361.496 632.892,384.829 623,408.5C 592.955,458.557 550.788,494.057 496.5,515C 425.323,531.167 361.323,516.501 304.5,471C 269.775,441.726 248.942,404.56 242,359.5C 235.009,293.139 254.342,235.806 300,187.5C 355.228,136.406 418.394,123.906 489.5,150C 505.216,156.022 519.882,163.856 533.5,173.5C 489.206,198.646 445.54,224.812 402.5,252C 385.517,262.976 369.684,275.476 355,289.5C 339.061,309.265 328.061,331.598 322,356.5C 316.368,380.581 314.701,404.914 317,429.5C 317.414,429.957 317.914,430.291 318.5,430.5C 456.33,351.086 593.997,271.419 731.5,191.5C 676.048,78.5802 585.714,14.5802 460.5,-0.5C 573.167,-0.5 685.833,-0.5 798.5,-0.5C 798.5,219.167 798.5,438.833 798.5,658.5C 532.167,658.5 265.833,658.5 -0.5,658.5C -0.5,438.833 -0.5,219.167 -0.5,-0.5 Z"/></g>
<g><path style="opacity:1" fill="#24292d" d="M 405.5,-0.5 C 423.833,-0.5 442.167,-0.5 460.5,-0.5C 585.714,14.5802 676.048,78.5802 731.5,191.5C 593.997,271.419 456.33,351.086 318.5,430.5C 317.914,430.291 317.414,429.957 317,429.5C 314.701,404.914 316.368,380.581 322,356.5C 328.061,331.598 339.061,309.265 355,289.5C 369.684,275.476 385.517,262.976 402.5,252C 445.54,224.812 489.206,198.646 533.5,173.5C 519.882,163.856 505.216,156.022 489.5,150C 418.394,123.906 355.228,136.406 300,187.5C 254.342,235.806 235.009,293.139 242,359.5C 248.942,404.56 269.775,441.726 304.5,471C 361.323,516.501 425.323,531.167 496.5,515C 550.788,494.057 592.955,458.557 623,408.5C 632.892,384.829 643.559,361.496 655,338.5C 662.106,325.953 670.44,314.286 680,303.5C 705.629,278.759 735.462,260.759 769.5,249.5C 771.687,265.248 773.021,281.082 773.5,297C 772.54,349.936 761.04,400.436 739,448.5C 710.308,512.513 667.141,564.347 609.5,604C 524.761,655.62 434.428,668.287 338.5,642C 230.28,606.114 157.446,534.28 120,426.5C 88.9337,318.145 106.267,218.478 172,127.5C 231.796,52.3441 309.63,9.67743 405.5,-0.5 Z"/></g>
<g><path style="opacity:1" fill="#f16624" d="M 85.5,439.5 C 86.4959,439.414 87.3292,439.748 88,440.5C 98.4099,475.485 114.243,507.651 135.5,537C 97.9975,559.252 60.3308,581.252 22.5,603C 21.2068,603.49 19.8734,603.657 18.5,603.5C 16.4318,567.911 21.9318,533.578 35,500.5C 46.2488,475.429 63.0822,455.096 85.5,439.5 Z"/></g>
</svg>
