<?xml version="1.0" encoding="utf-8"?>
<svg version="1.1" id="Layer_1" x="0px" y="0px" width="506.1px" height="105.9px" viewBox="0 0 506.1 105.9" style="enable-background:new 0 0 506.1 105.9;" xmlns="http://www.w3.org/2000/svg">
  <style type="text/css">
	.st0{fill-rule:evenodd;clip-rule:evenodd;fill:#FFFFFF;}
	.st1{fill-rule:evenodd;clip-rule:evenodd;fill:#F16623;}
	.st2{fill:#F16623;}
	.st3{fill:#FFFFFF;}
</style>
  <g>
    <path class="st0" d="M98,42.5L51.1,69.6c0,0-2.1-17,9.3-25.6C69.8,36.9,92,25,92,25"/>
    <path class="st1" d="M14.4,70.7c1.1,3.9,2.7,7.6,4.8,11.3c0.9,1.6,1.9,3.1,2.9,4.5L3.5,97.3c0,0-2-17,9.4-25.5 C13.3,71.5,13.8,71.1,14.4,70.7z"/>
    <path class="st0" d="M123.5,40.4c3.5,21-8.1,46.7-27.6,58c-25.1,14.5-57.2,5.9-71.7-19.2C9.7,54,18.3,21.9,43.4,7.4 s57.2-5.9,71.7,19.2c0.2,0.4,2.2,3.9,2.3,4.7L97.1,43c-0.4-0.8-1.7-4-2.1-4.7C86.9,24.3,68.4,18,54.4,26c-14,8.1-20,28-11.9,42 s28.8,20.6,42.7,12.6c4.5-2.6,12.9-8.9,16.6-18.4C106.9,49.1,111.8,45.1,123.5,40.4z"/>
    <path class="st2" d="M170.1,85.6h-12.3c-0.8,0-1.5-0.7-1.5-1.5v-68c0-0.8,0.7-1.5,1.5-1.5h12.3c0.8,0,1.5,0.7,1.5,1.5v68 C171.6,84.9,170.9,85.6,170.1,85.6z M202.7,26.9h-34.4c-0.8,0-1.5-0.7-1.5-1.5V16c0-0.8,0.7-1.5,1.5-1.5h34.4 c0.8,0,1.5,0.7,1.5,1.5v9.4C204.2,26.3,203.5,26.9,202.7,26.9z M197.8,55.1h-29.6c-0.8,0-1.5-0.7-1.5-1.5v-8.9 c0-0.8,0.7-1.5,1.5-1.5h29.6c0.8,0,1.5,0.7,1.5,1.5v8.9C199.4,54.4,198.7,55.1,197.8,55.1z M202.7,85.6h-34.5 c-0.8,0-1.5-0.7-1.5-1.5v-9.3c0-0.8,0.7-1.5,1.5-1.5h34.5c0.8,0,1.5,0.7,1.5,1.5v9.3C204.2,84.9,203.6,85.6,202.7,85.6z"/>
    <path class="st3" d="M209.4,58.8c0-5.4,0.8-10.1,2.4-14.1s4-7.2,7-9.5c3.1-2.3,6.8-3.4,11.3-3.4c4.1,0,7.6,1.2,10.4,3.5 c2.8,2.4,5,5.6,6.6,9.7s2.7,8.7,3.3,13.8c0,0.1,0,0.1,0,0.2v1c0,0.1,0,0.1,0,0.2c-0.6,4.9-1.7,9.3-3.3,13.3s-3.8,7.2-6.6,9.5 c-2.8,2.4-6.3,3.5-10.5,3.5c-4.4,0-8.1-1.2-11.2-3.5c-3.1-2.3-5.4-5.5-7-9.5s-2.4-8.6-2.4-13.7V58.8z M224.2,59.8 c0,2.7,0.3,5.2,0.9,7.5c0.6,2.2,1.6,4,3,5.3s3.3,2,5.7,2c2.3,0,4.3-0.5,5.8-1.6s2.6-2.5,3.4-4.4c0.8-1.9,1.2-4,1.4-6.5V62v-5 c-0.1-2.1-0.3-4-0.8-5.6s-1.1-3-2-4.2s-1.9-2-3.2-2.6s-2.8-0.9-4.5-0.9c-2.3,0-4.2,0.7-5.7,2c-1.4,1.3-2.5,3.1-3.1,5.4 c-0.6,2.3-1,4.8-1,7.7v1H224.2z M244.1,10.6h11.8c0.8,0,1.5,0.7,1.5,1.5V84c0,0.8-0.7,1.5-1.5,1.5h-10.5c-0.8,0-1.4-0.6-1.5-1.3 L242.6,74c0-0.1,0-0.1,0-0.2V12.2C242.6,11.3,243.3,10.6,244.1,10.6z"/>
    <path class="st3" d="M303.3,61.9c0.9,0,1.6,0.7,1.6,1.6c-0.1,4.1-0.9,7.8-2.1,11.1c-1.4,3.7-3.6,6.7-6.5,8.8 c-2.9,2.1-6.6,3.2-11,3.2c-5.2,0-9.4-1.5-12.7-4.6c-3.2-3-4.9-8.1-4.9-15.1V34.3c0-0.8,0.7-1.5,1.5-1.5h11.7c0.8,0,1.5,0.7,1.5,1.5 v32.8c0,1.8,0.3,3.2,0.9,4.4c0.6,1.1,1.4,1.9,2.5,2.4s2.3,0.8,3.7,0.8c2.8,0,5.1-0.6,6.7-1.7s2.8-2.6,3.4-4.5 c0.5-1.5,0.9-3.2,1-5.1c0-0.8,0.7-1.4,1.5-1.4L303.3,61.9z M300.6,32.8h11.7c0.8,0,1.5,0.7,1.5,1.5v49.8c0,0.8-0.7,1.5-1.5,1.5 h-10.9c-0.8,0-1.5-0.6-1.5-1.4L299,72.9v-0.1V34.3C299,33.5,299.7,32.8,300.6,32.8z"/>
    <path class="st3" d="M 441.5 105.9 L 429.8 105.9 C 429 105.9 428.3 105.2 428.3 104.4 L 428.3 34.3 C 428.3 33.5 429 32.8 429.8 32.8 L 440.6 32.8 C 441.4 32.8 442 33.4 442.1 34.2 L 443 42.9 C 443 43 443 43 443 43.1 L 443 104.5 C 443.1 105.3 442.4 105.9 441.5 105.9 Z M 476.3 59.7 C 476.3 64.8 475.5 69.4 473.9 73.5 C 472.3 77.6 470 80.8 467 83.1 C 464 85.5 460.2 86.6 455.7 86.6 C 451.4 86.6 447.8 85.4 445 83.1 C 442.2 80.7 440.1 77.6 438.5 73.6 C 437 69.6 435.9 65.2 435.2 60.4 C 435.2 60.3 435.2 60.2 435.2 60.2 L 435.2 58.9 C 435.2 58.8 435.2 58.8 435.2 58.7 C 435.9 53.6 436.9 49 438.5 45 C 440 40.9 442.2 37.8 445 35.4 C 447.8 33.1 451.3 31.9 455.6 31.9 C 460.1 31.9 463.8 33 466.9 35.2 C 470 37.4 472.3 40.6 473.9 44.6 C 475.5 48.6 476.3 53.3 476.3 58.7 L 476.3 59.7 L 476.3 59.7 Z M 461.5 58.6 C 461.5 55.7 461.2 53.2 460.5 51 C 459.9 48.8 458.8 47 457.4 45.7 C 456 44.4 454.1 43.8 451.7 43.8 C 449.9 43.8 448.3 44.1 447 44.7 C 445.7 45.3 444.7 46.1 443.8 47.2 C 443 48.3 442.4 49.7 441.9 51.3 C 441.5 52.9 441.3 54.8 441.2 56.9 L 441.2 62.2 L 441.2 62.3 C 441.3 64.7 441.7 66.8 442.4 68.7 C 443.1 70.6 444.2 72.1 445.7 73.2 C 447.2 74.3 449.2 74.8 451.7 74.8 C 454.1 74.8 456 74.1 457.4 72.7 C 458.8 71.3 459.8 69.5 460.4 67.2 C 461 64.9 461.3 62.4 461.3 59.7 L 461.3 58.6 L 461.5 58.6 Z"/>
    <path class="st3" d="M 369.357 58.7 C 369.357 53.6 370.357 49 372.257 44.9 C 374.157 40.8 377.057 37.6 380.757 35.3 C 384.457 33 389.057 31.8 394.357 31.8 C 399.757 31.8 404.357 33 408.057 35.3 C 411.757 37.6 414.657 40.8 416.557 44.9 C 418.457 49 419.457 53.6 419.457 58.7 L 419.457 59.7 C 419.457 64.8 418.457 69.4 416.557 73.5 C 414.657 77.6 411.757 80.8 408.057 83.1 C 404.357 85.4 399.757 86.6 394.357 86.6 C 388.957 86.6 384.457 85.4 380.657 83.1 C 376.857 80.8 374.057 77.6 372.057 73.5 C 370.057 69.4 369.157 64.8 369.157 59.7 L 369.157 58.7 L 369.357 58.7 Z M 384.157 59.8 C 384.157 62.6 384.457 65.1 385.157 67.4 C 385.857 69.7 386.957 71.5 388.457 72.8 C 389.957 74.1 392.057 74.8 394.557 74.8 C 397.057 74.8 399.157 74.1 400.657 72.8 C 402.157 71.5 403.257 69.7 403.957 67.4 C 404.657 65.1 404.957 62.6 404.957 59.8 L 404.957 58.8 C 404.957 56.1 404.657 53.6 403.957 51.3 C 403.257 49 402.157 47.2 400.657 45.8 C 399.157 44.4 397.057 43.7 394.457 43.7 C 391.957 43.7 389.857 44.4 388.357 45.8 C 386.857 47.2 385.757 49 385.157 51.3 C 384.457 53.6 384.157 56.1 384.157 58.8 L 384.157 59.8 Z"/>
    <path class="st3" d="M 355.774 43.6 L 327.674 43.6 C 326.874 43.6 326.174 42.9 326.174 42.1 L 326.174 34.4 C 326.174 33.6 326.874 32.9 327.674 32.9 L 355.774 32.9 C 356.574 32.9 357.274 33.6 357.274 34.4 L 357.274 42.1 C 357.274 43 356.674 43.6 355.774 43.6 Z M 346.874 19.9 C 347.674 19.9 348.374 20.6 348.374 21.4 L 348.374 69.2 C 348.374 70.6 348.574 71.7 348.974 72.5 C 349.374 73.3 349.974 73.8 350.774 74.1 C 351.574 74.4 352.574 74.5 353.774 74.5 C 354.674 74.5 355.474 74.5 356.074 74.4 L 356.174 74.4 C 357.074 74.3 357.874 75 357.874 75.9 L 357.874 84.1 C 357.874 84.8 357.374 85.4 356.774 85.6 C 355.874 85.9 354.974 86.1 353.974 86.2 C 352.574 86.4 350.974 86.5 349.174 86.5 C 345.974 86.5 343.274 86 340.974 84.9 C 338.674 83.8 336.874 82.1 335.574 79.8 C 334.274 77.5 333.674 74.4 333.674 70.6 L 333.674 21.4 C 333.674 20.6 334.374 19.9 335.174 19.9 L 346.874 19.9 Z"/>
  </g>
</svg>