<?xml version="1.0" encoding="utf-8"?>
<svg version="1.1" id="Layer_1" x="0px" y="0px" width="506.1px" height="105.9px" viewBox="0 0 506.1 105.9" style="enable-background:new 0 0 506.1 105.9;" xmlns="http://www.w3.org/2000/svg">
  <style type="text/css">
	.st0{fill-rule:evenodd;clip-rule:evenodd;fill:#24292D;}
	.st1{fill-rule:evenodd;clip-rule:evenodd;fill:#F16623;}
	.st2{fill:#F16623;}
	.st3{fill:#24292D;}
</style>
  <g>
    <path class="st0" d="M98,42.5L51.1,69.6c0,0-2.1-17,9.3-25.6c9.4-7.1,31.6-19,31.6-19"/>
    <path class="st1" d="M14.4,70.7c1.1,3.9,2.7,7.6,4.8,11.3c0.9,1.6,1.9,3.1,2.9,4.5L3.5,97.3c0,0-2-17,9.4-25.5 C13.3,71.5,13.8,71.1,14.4,70.7z"/>
    <path class="st0" d="M123.5,40.4c3.5,21-8.1,46.7-27.6,58c-25.1,14.5-57.2,5.9-71.7-19.2C9.7,54,18.3,21.9,43.4,7.4 c25.1-14.5,57.2-5.9,71.7,19.2c0.2,0.4,2.2,3.9,2.3,4.7L97.1,43c-0.4-0.8-1.7-4-2.1-4.7C86.9,24.3,68.4,18,54.4,26 c-14,8.1-20,28-11.9,42c8.1,14,28.8,20.6,42.7,12.6c4.5-2.6,12.9-8.9,16.6-18.4C106.9,49.1,111.8,45.1,123.5,40.4z"/>
    <path class="st2" d="M170.1,85.6h-12.3c-0.8,0-1.5-0.7-1.5-1.5v-68c0-0.8,0.7-1.5,1.5-1.5h12.3c0.8,0,1.5,0.7,1.5,1.5v68 C171.6,84.9,170.9,85.6,170.1,85.6z M202.7,26.9h-34.4c-0.8,0-1.5-0.7-1.5-1.5v-9.4c0-0.8,0.7-1.5,1.5-1.5h34.4 c0.8,0,1.5,0.7,1.5,1.5v9.4C204.2,26.3,203.5,26.9,202.7,26.9z M197.8,55.1h-29.6c-0.8,0-1.5-0.7-1.5-1.5v-8.9 c0-0.8,0.7-1.5,1.5-1.5h29.6c0.8,0,1.5,0.7,1.5,1.5v8.9C199.4,54.4,198.7,55.1,197.8,55.1z M202.7,85.6h-34.5 c-0.8,0-1.5-0.7-1.5-1.5v-9.3c0-0.8,0.7-1.5,1.5-1.5h34.5c0.8,0,1.5,0.7,1.5,1.5v9.3C204.2,84.9,203.6,85.6,202.7,85.6z"/>
    <path class="st3" d="M209.4,58.8c0-5.4,0.8-10.1,2.4-14.1s4-7.2,7-9.5c3.1-2.3,6.8-3.4,11.3-3.4c4.1,0,7.6,1.2,10.4,3.5 c2.8,2.4,5,5.6,6.6,9.7c1.6,4.1,2.7,8.7,3.3,13.8c0,0.1,0,0.1,0,0.2v1c0,0.1,0,0.1,0,0.2c-0.6,4.9-1.7,9.3-3.3,13.3 c-1.6,4-3.8,7.2-6.6,9.5c-2.8,2.4-6.3,3.5-10.5,3.5c-4.4,0-8.1-1.2-11.2-3.5c-3.1-2.3-5.4-5.5-7-9.5c-1.6-4-2.4-8.6-2.4-13.7V58.8z M224.2,59.8c0,2.7,0.3,5.2,0.9,7.5c0.6,2.2,1.6,4,3,5.3c1.4,1.3,3.3,2,5.7,2c2.3,0,4.3-0.5,5.8-1.6c1.5-1.1,2.6-2.5,3.4-4.4 c0.8-1.9,1.2-4,1.4-6.5c0,0,0-0.1,0-0.1l0-5c-0.1-2.1-0.3-4-0.8-5.6c-0.5-1.6-1.1-3-2-4.2s-1.9-2-3.2-2.6c-1.3-0.6-2.8-0.9-4.5-0.9 c-2.3,0-4.2,0.7-5.7,2c-1.4,1.3-2.5,3.1-3.1,5.4c-0.6,2.3-1,4.8-1,7.7V59.8z M244.1,10.6h11.8c0.8,0,1.5,0.7,1.5,1.5v71.9 c0,0.8-0.7,1.5-1.5,1.5h-10.5c-0.8,0-1.4-0.6-1.5-1.3L242.6,74c0-0.1,0-0.1,0-0.2V12.2C242.6,11.3,243.3,10.6,244.1,10.6z"/>
    <path class="st3" d="M303.3,61.9c0.9,0,1.6,0.7,1.6,1.6c-0.1,4.1-0.9,7.8-2.1,11.1c-1.4,3.7-3.6,6.7-6.5,8.8 c-2.9,2.1-6.6,3.2-11,3.2c-5.2,0-9.4-1.5-12.7-4.6c-3.2-3-4.9-8.1-4.9-15.1V34.3c0-0.8,0.7-1.5,1.5-1.5h11.7c0.8,0,1.5,0.7,1.5,1.5 v32.8c0,1.8,0.3,3.2,0.9,4.4c0.6,1.1,1.4,1.9,2.5,2.4c1.1,0.5,2.3,0.8,3.7,0.8c2.8,0,5.1-0.6,6.7-1.7c1.6-1.1,2.8-2.6,3.4-4.5 c0.5-1.5,0.9-3.2,1-5.1c0-0.8,0.7-1.4,1.5-1.4L303.3,61.9z M300.6,32.8h11.7c0.8,0,1.5,0.7,1.5,1.5v49.8c0,0.8-0.7,1.5-1.5,1.5 h-10.9c-0.8,0-1.5-0.6-1.5-1.4L299,72.9c0,0,0-0.1,0-0.1V34.3C299,33.5,299.7,32.8,300.6,32.8z"/>
    <path class="st3" d="M 439.437 105.445 L 427.737 105.445 C 426.937 105.445 426.237 104.745 426.237 103.945 L 426.237 33.845 C 426.237 33.045 426.937 32.345 427.737 32.345 L 438.537 32.345 C 439.337 32.345 439.937 32.945 440.037 33.745 L 440.937 42.445 C 440.937 42.545 440.937 42.545 440.937 42.645 L 440.937 104.045 C 441.037 104.845 440.337 105.445 439.437 105.445 Z M 474.237 59.245 C 474.237 64.345 473.437 68.945 471.837 73.045 C 470.237 77.145 467.937 80.345 464.937 82.645 C 461.937 85.045 458.137 86.145 453.637 86.145 C 449.337 86.145 445.737 84.945 442.937 82.645 C 440.137 80.245 438.037 77.145 436.437 73.145 C 434.937 69.145 433.837 64.745 433.137 59.945 C 433.137 59.845 433.137 59.745 433.137 59.745 L 433.137 58.445 C 433.137 58.345 433.137 58.345 433.137 58.245 C 433.837 53.145 434.837 48.545 436.437 44.545 C 437.937 40.445 440.137 37.345 442.937 34.945 C 445.737 32.645 449.237 31.445 453.537 31.445 C 458.037 31.445 461.737 32.545 464.837 34.745 C 467.937 36.945 470.237 40.145 471.837 44.145 C 473.437 48.145 474.237 52.845 474.237 58.245 L 474.237 59.245 Z M 459.437 58.145 C 459.437 55.245 459.137 52.745 458.437 50.545 C 457.837 48.345 456.737 46.545 455.337 45.245 C 453.937 43.945 452.037 43.345 449.637 43.345 C 447.837 43.345 446.237 43.645 444.937 44.245 C 443.637 44.845 442.637 45.645 441.737 46.745 C 440.937 47.845 440.337 49.245 439.837 50.845 C 439.437 52.445 439.237 54.345 439.137 56.445 L 439.137 61.745 C 439.137 61.745 439.137 61.845 439.137 61.845 C 439.237 64.245 439.637 66.345 440.337 68.245 C 441.037 70.145 442.137 71.645 443.637 72.745 C 445.137 73.845 447.137 74.345 449.637 74.345 C 452.037 74.345 453.937 73.645 455.337 72.245 C 456.737 70.845 457.737 69.045 458.337 66.745 C 458.937 64.445 459.237 61.945 459.237 59.245 L 459.237 58.145 L 459.437 58.145 Z"/>
    <path class="st3" d="M 366.409 58.7 C 366.409 53.6 367.409 49 369.309 44.9 C 371.209 40.8 374.109 37.6 377.809 35.3 C 381.509 33 386.109 31.8 391.409 31.8 C 396.809 31.8 401.409 33 405.109 35.3 C 408.809 37.6 411.709 40.8 413.609 44.9 C 415.509 49 416.509 53.6 416.509 58.7 L 416.509 59.7 C 416.509 64.8 415.509 69.4 413.609 73.5 C 411.709 77.6 408.809 80.8 405.109 83.1 C 401.409 85.4 396.809 86.6 391.409 86.6 C 386.009 86.6 381.509 85.4 377.709 83.1 C 373.909 80.8 371.109 77.6 369.109 73.5 C 367.109 69.4 366.209 64.8 366.209 59.7 L 366.209 58.7 L 366.409 58.7 Z M 381.209 59.8 C 381.209 62.6 381.509 65.1 382.209 67.4 C 382.909 69.7 384.009 71.5 385.509 72.8 C 387.009 74.1 389.109 74.8 391.609 74.8 C 394.109 74.8 396.209 74.1 397.709 72.8 C 399.209 71.5 400.309 69.7 401.009 67.4 C 401.709 65.1 402.009 62.6 402.009 59.8 L 402.009 58.8 C 402.009 56.1 401.709 53.6 401.009 51.3 C 400.309 49 399.209 47.2 397.709 45.8 C 396.209 44.4 394.109 43.7 391.509 43.7 C 389.009 43.7 386.909 44.4 385.409 45.8 C 383.909 47.2 382.809 49 382.209 51.3 C 381.509 53.6 381.209 56.1 381.209 58.8 L 381.209 59.8 Z"/>
    <path class="st3" d="M 353.71 43.6 L 325.61 43.6 C 324.81 43.6 324.11 42.9 324.11 42.1 L 324.11 34.4 C 324.11 33.6 324.81 32.9 325.61 32.9 L 353.71 32.9 C 354.51 32.9 355.21 33.6 355.21 34.4 L 355.21 42.1 C 355.21 43 354.61 43.6 353.71 43.6 Z M 344.81 19.9 C 345.61 19.9 346.31 20.6 346.31 21.4 L 346.31 69.2 C 346.31 70.6 346.51 71.7 346.91 72.5 C 347.31 73.3 347.91 73.8 348.71 74.1 C 349.51 74.4 350.51 74.5 351.71 74.5 C 352.61 74.5 353.41 74.5 354.01 74.4 L 354.11 74.4 C 355.01 74.3 355.81 75 355.81 75.9 L 355.81 84.1 C 355.81 84.8 355.31 85.4 354.71 85.6 C 353.81 85.9 352.91 86.1 351.91 86.2 C 350.51 86.4 348.91 86.5 347.11 86.5 C 343.91 86.5 341.21 86 338.91 84.9 C 336.61 83.8 334.81 82.1 333.51 79.8 C 332.21 77.5 331.61 74.4 331.61 70.6 L 331.61 21.4 C 331.61 20.6 332.31 19.9 333.11 19.9 L 344.81 19.9 Z"/>
  </g>
</svg>